<!-- Generator: Adobe Illustrator 23.0.6, SVG Export Plug-In  -->
<svg version="1.1" xmlns="http://www.w3.org/2000/svg" xmlns:xlink="http://www.w3.org/1999/xlink" x="0px" y="0px"
	 width="448.58px" height="293.89px" viewBox="0 0 448.58 293.89" style="enable-background:new 0 0 448.58 293.89;"
	 xml:space="preserve">
<style type="text/css">
	.st0{fill:#98B6C7;}
</style>
<defs>
</defs>
<g>
	<path class="st0" d="M299.87,130.27c3.45,0,6.19,2.66,6.19,6.05c0,3.4-2.74,6.09-6.22,6.09c-3.48,0-6.26-2.69-6.26-6.09
		c0-3.39,2.78-6.05,6.26-6.05H299.87z M299.79,131.49c-2.63,0-4.67,2.17-4.67,4.83c0,2.69,2.04,4.83,4.74,4.83
		c2.63,0.04,4.63-2.14,4.63-4.8c0-2.69-2-4.87-4.67-4.87H299.79z M298.87,139.46h-1.41v-6.05c0.56-0.07,1.34-0.19,2.33-0.19
		c1.15,0,1.67,0.19,2.08,0.48c0.37,0.26,0.63,0.7,0.63,1.29c0,0.74-0.55,1.22-1.26,1.44v0.07c0.59,0.18,0.89,0.66,1.08,1.48
		c0.18,0.92,0.33,1.25,0.44,1.48h-1.48c-0.18-0.22-0.3-0.74-0.48-1.48c-0.11-0.63-0.48-0.92-1.26-0.92h-0.67V139.46z M298.91,136.06
		h0.67c0.78,0,1.41-0.26,1.41-0.89c0-0.55-0.41-0.92-1.3-0.92c-0.37,0-0.63,0.04-0.78,0.07V136.06z"/>
	<polygon class="st0" points="211.98,0 209.65,0 171.04,74.99 106.15,35.22 102.3,35.09 135.39,137.62 157.8,134.58 138.38,77.46 
		181.67,102.61 189.58,86.36 189.57,86.35 210.56,44.58 228.29,81.44 247.21,70.41 	"/>
	<polygon class="st0" points="314.55,35.22 210.35,98.53 194.77,89.42 187.06,105.75 209.03,118.51 210.35,118.51 211.67,118.51 
		282.32,77.46 262.9,134.58 285.31,137.62 318.4,35.09 	"/>
</g>
<g>
	<polygon points="55.01,206.56 3.74,159.65 0,159.65 0,241.25 16.44,241.25 16.44,192 53.69,226.03 56.17,226.03 91.54,192.14 
		91.54,241.25 107.98,241.25 107.98,159.65 104.22,159.65 	"/>
	<rect x="128.23" y="160.88" width="16.44" height="80.37"/>
	<path d="M208.27,158.54l-55.57,82.71h17.59l9.94-14.85h59.34l10.18,14.85h18.23l-56.73-82.71H208.27z M229.85,212.29h-40.18
		l19.88-29.57L229.85,212.29z"/>
	<polygon points="329.77,206.56 278.5,159.65 274.75,159.65 274.75,241.25 291.2,241.25 291.2,192 328.44,226.03 330.92,226.03 
		366.3,192.14 366.3,241.25 382.74,241.25 382.74,159.65 378.97,159.65 	"/>
	<rect x="402.99" y="160.88" width="16.44" height="80.37"/>
</g>
<path d="M23.26,293.89c-13.14,0-22.47-5.51-22.47-15.27c0-9.81,9.95-15.7,22.18-15.7c9.28,0,13.82,1.74,15.61,2.42v3.57l-0.19,0.15
	c-2.27-1.55-6.43-3.87-15.27-3.87c-10.39,0-17.73,4.44-17.73,13.43c0,8.65,6.33,13,17.88,13c7.97,0,11.98-2.08,15.99-5.22l0.24,0.1
	v3.82C37.37,291.52,32.01,293.89,23.26,293.89z"/>
<path d="M64.96,293.89c-11.31,0-21.65-5.07-21.65-15.37c0-10.72,10.87-15.61,21.65-15.61c10.73,0,21.64,4.78,21.64,15.51
	C86.6,288.72,76.26,293.89,64.96,293.89z M64.86,291.61c10.87,0,17.15-4.78,17.15-13.09c0-8.36-6.62-13.33-17.15-13.33
	c-10.53,0-16.96,4.88-16.96,13.24C47.9,286.74,54.04,291.61,64.86,291.61z"/>
<path d="M93.37,263.3h3.77c8.79,8.26,19.61,17.92,28.46,25.7c0.1-6.81,0.1-19.33,0-25.56l0.19-0.14h2.42l0.19,0.2
	c-0.19,8.64-0.19,20.67,0,29.76l-0.24,0.2h-3.58c-7.59-7.34-20.05-18.51-28.6-26c-0.09,6.04-0.14,18.31,0,25.85l-0.19,0.14h-2.47
	l-0.14-0.14c0.14-7.44,0.14-22.86,0-29.86L93.37,263.3z"/>
<path d="M136.9,293.36c0.19-9.28,0.19-22.62,0-29.62l0.19-0.19c3.72-0.14,6.91-0.63,15.41-0.63c12.32,0,23.19,5.08,23.19,15.8
	c0,9.57-10.53,15.17-23.19,15.17c-7.54,0-11.98-0.43-15.41-0.39L136.9,293.36z M141,290.99c2.61,0.24,4.16,0.67,10.82,0.67
	c13.14,0,19.28-4.83,19.28-12.85c0-8.79-6.47-13.62-19.52-13.62c-5.12,0-7.59,0.43-10.58,0.87
	C140.86,270.99,140.9,282.82,141,290.99z"/>
<path d="M201.97,293.89c-11.31,0-21.65-5.07-21.65-15.37c0-10.72,10.87-15.61,21.65-15.61c10.73,0,21.65,4.78,21.65,15.51
	C223.62,288.72,213.28,293.89,201.97,293.89z M201.88,291.61c10.87,0,17.15-4.78,17.15-13.09c0-8.36-6.62-13.33-17.15-13.33
	c-10.53,0-16.96,4.88-16.96,13.24C184.92,286.74,191.05,291.61,201.88,291.61z"/>
<path d="M247.92,293.45h-3.82l-0.14-0.09c0.19-9.28,0.19-22.95,0-29.91l0.19-0.14h3.77l0.19,0.2c-0.15,4.69-0.19,10.87-0.19,17.15
	c9.9-6.48,17.1-11.98,24.26-17.35h5.41l0.1,0.2c-5.27,3.14-11.69,7.44-18.36,12.08c5.55,5.12,13.19,11.93,20.34,17.68l-0.15,0.2
	h-5.75c-6.57-6.28-11.55-10.63-17.68-15.61l-8.17,5.7c0.05,3.43,0.09,6.77,0.19,9.76L247.92,293.45z"/>
<path d="M284.88,293.31c0.19-9.28,0.19-22.86,0-29.81l0.14-0.2h3.82l0.19,0.14c-0.19,10.44-0.15,20.1-0.05,29.86l-0.19,0.14h-3.77
	L284.88,293.31z"/>
<path d="M297.97,263.3h3.77c8.79,8.26,19.62,17.92,28.46,25.7c0.1-6.81,0.1-19.33,0-25.56l0.19-0.14h2.42l0.19,0.2
	c-0.19,8.64-0.19,20.67,0,29.76l-0.24,0.2h-3.57c-7.58-7.34-20.05-18.51-28.6-26c-0.1,6.04-0.14,18.31,0,25.85l-0.19,0.14h-2.47
	l-0.14-0.14c0.14-7.44,0.14-22.86,0-29.86L297.97,263.3z"/>
<path d="M361.74,293.89c-13,0-22.18-5.41-22.18-15.32c0-9.57,10.1-15.65,21.98-15.65c9.91,0,14.54,1.69,16.33,2.46v4.01l-0.2,0.09
	c-2.17-1.83-6.14-4.3-15.99-4.3c-10.53,0-17.54,4.49-17.54,13.38c0,8.99,6.04,13.05,17.59,13.05c6.09,0,9.76-1.11,13.19-2.41
	c0.1-3.43,0.1-5.36-0.05-10.49l0.19-0.19h3.77l0.19,0.14c-0.19,4.93-0.19,7.68,0,12.13C374.26,292.68,369.38,293.89,361.74,293.89z"
	/>
<path d="M409.72,280.02c-4.69-0.77-11.89-0.09-18.21-1.55c-4.3-0.97-6.57-3.19-6.57-6.86c0-5.22,5.03-8.7,16.09-8.7
	c8.94,0,13.29,1.84,15.02,2.8v3.53l-0.24,0.1c-2.03-1.69-6.38-4.15-15.03-4.15c-10.1,0-12.56,2.95-12.56,5.7
	c0,2.46,1.64,3.87,4.83,4.49c4.88,0.97,11.74,0.43,17.49,1.26c5.03,0.72,8.02,2.75,8.02,6.91c0,5.85-5.36,10.34-17.88,10.34
	c-9.04,0-14.35-2.13-16.47-3.53v-3.91l0.19-0.09c3.53,3.09,8.26,5.26,16.52,5.26c10.44,0,14.06-2.99,14.06-6.81
	C414.98,282.39,413.29,280.6,409.72,280.02z"/>
<path d="M436.46,160.44v1.56h-3.03v7.91h-1.88v-7.91h-2.99v-1.56H436.46z M446.7,169.92l-0.35-5.57c-0.04-0.73-0.04-1.6-0.07-2.65
	h-0.1c-0.25,0.84-0.52,1.95-0.8,2.82l-1.71,5.26h-1.95l-1.67-5.4c-0.17-0.7-0.49-1.85-0.7-2.68h-0.1c0,0.87-0.03,1.81-0.07,2.65
	l-0.35,5.57h-1.81l0.7-9.47h2.85l1.6,4.63c0.24,0.73,0.42,1.43,0.63,2.4h0.07c0.21-0.83,0.45-1.67,0.63-2.33l1.64-4.7h2.75l0.7,9.47
	H446.7z"/>
</svg>
